<svg width="110" height="110" viewBox="0 0 110 110" fill="none" xmlns="http://www.w3.org/2000/svg">
    <rect width="110" height="110" rx="20" fill="#19BBD8" />
    <path
        d="M79.3038 41.36H75.3838C74.5304 41.36 74.0238 41.0933 73.8638 40.56C73.5971 39.6533 73.3304 37.8933 73.0638 35.28H59.6238V80.24L60.5838 80.4C63.0371 80.88 64.3704 81.1467 64.5838 81.2C65.1171 81.36 65.3838 81.84 65.3838 82.64V86H46.0238V82.64C46.0238 82.2133 46.1304 81.8667 46.3438 81.6C46.6104 81.28 46.9571 81.0933 47.3838 81.04L51.7838 80.16V35.2H38.2638C37.9438 38.1867 37.7038 39.9733 37.5438 40.56C37.3838 41.0933 36.8504 41.36 35.9438 41.36H32.1038V28.72H79.3038V41.36Z"
        fill="white" />
</svg>
